<?xml version="1.0" encoding="UTF-8"?>
<svg viewBox="0 0 308.14505 300.37683" xmlns="http://www.w3.org/2000/svg" xmlns:xlink="http://www.w3.org/1999/xlink">
 <g transform="translate(-179.92 -318.68)">
  <g transform="matrix(.92062 -.39046 .39046 .92062 -150.08 167.49)">
   <path d="m239.26 290s-6.4728 35.763 22.358 54.951c37.467 24.937 15.063 47.331 23.328 67.409" fill="none" stroke="#333" stroke-width="7"/>
   <path d="m287.58 290s-6.4728 35.763 22.358 54.951c37.467 24.937 15.063 47.331 23.328 67.409" fill="none" stroke="#333" stroke-width="7"/>
   <g transform="matrix(.37124 .92854 -.92854 .37124 1365.2 735.41)">
    <path d="m-531.47 947.33-28.868-4.9869-2.4838-16.145 3.7257-63.337-1.2419-18.628 3.7257-22.354 4.9676 1.2419v-4.9676l40.35 0.0387v4.9676l4.9676-1.2419 3.7257 22.354-1.2419 18.628 3.7257 63.337-2.4838 16.145-28.868 4.9482z" fill="#df7537" stroke="#000" stroke-width="1.2294"/>
    <path d="m-552.46 827.47 4.3466 18.628h33.273l4.3466-18.628h-41.967z"/>
    <path d="m-545.5 905.32-8.6933-2.4838 5.5885-17.387h34.253l5.5885 17.387-8.6933 2.4838h-28.044z"/>
    <path d="m-551.44 824.94-1.3248-7.4142 21.289 1.2357 21.289-1.2357-1.3248 7.4142h-39.928z" fill="#df7537" stroke="#000" stroke-width="1.2666"/>
    <path d="m-506.53 844.84-5.2473 4.3671v16.145l4.6058 2.4838 0.64146-22.996zm-49.878 0 5.2473 4.3671v16.145l-4.6058 2.4838-0.64146-22.996z"/>
    <path d="m-507.13 871.14-5.4229-3.7663-0.54228 15.05 6.2095 12.429-0.24429-23.712zm-48.691 0 5.4229-3.7663 0.54228 15.05-6.2095 12.429 0.24428-23.712z"/>
    <path d="m-508.17 908.82v29.185m-46.613-29.185v29.185" fill="none" stroke="#000" stroke-width="1.2294"/>
   </g>
   <path transform="matrix(.45352 0 0 .45938 321.99 342.14)" d="m67.658 442.46-25.632 2.5848 21.033 10.836-31.241-2.0339 19.798 16.458-25.301-14.105 7.4012 23.527-16.542-21.518-3.2444 23.765-5.6755-26.748-12.916 20.519 7.0391-31.202-22.884 18.635 16.961-23.977-25.055 6.5313 23.585-18.525-22.568 1.2853 26.409-11.068-18.339-8.582 28.547 4.6801-18.099-17.343 24.328 15.444-8.4772-23.639 17.887 19.415 0.95274-23.807 6.9718 28.009 10.71-22.623-5.0973 31.586 20.942-19.019-14.266 26.231 24.06-4.7704-25.284 14.511 23.997 4.9445z" fill="#ff0" stroke="#000" stroke-width="4"/>
   <g transform="matrix(1.0855 0 0 1.0855 1500.2 -486.36)">
    <path d="m-1098.9 813.51-12.651 0.75119-9.0143 3.0048-6.7607 2.6292-3.0048 5.2584-1.1267 44.696 0.7512 24.789-4.5073 1.5024v2.6292l2.6292 1.1268h2.6292l0.7512 29.297 2.6292 10.141 4.5071 4.5072 6.0096 2.2536h34.317l6.0096-2.2536 4.5071-4.5072 2.6292-10.141 0.7512-29.297h2.6292l2.6292-1.1268v-2.6292l-4.5073-1.5024 0.7512-24.789-1.1267-44.696-3.0048-5.2584-6.7607-2.6292-9.0143-3.0048-12.651-0.75119z" fill="#bf2714" stroke="#000" stroke-width="1.0517"/>
    <path d="m-1109 880.43-9.7655-1.8781-8.6387 24.414 8.2632 4.1316 7.5118 2.2536h25.47l7.5118-2.2536 8.2632-4.1316-8.6387-24.414-9.7655 1.8781h-20.212z"/>
    <path d="m-1117.1 816.73 1.878 3.756 32.761 0.0211 1.878-3.756-36.517-0.0211z"/>
    <path d="m-1126.9 852.19 0.3755-26.667 6.3853 0.75121-0.7512 22.16-6.0096 3.7559zm56.048 0-0.3755-26.667-6.3853 0.75121 0.7512 22.16 6.0096 3.7559z"/>
    <path d="m-1127.6 892.73-0.3756-32.677 7.1364-4.5072v19.907l-6.7608 17.277zm57.551 0.0211 0.3756-32.677-7.1364-4.5072v19.907l6.7608 17.277z"/>
    <path d="m-1072.2 910.03-0.3756 18.78-3.0047 10.517m-49.897-29.297 0.3756 18.78 3.0047 10.517" fill="none" stroke="#000" stroke-width="1.0517"/>
   </g>
   <path d="m345.41 526.13c81.157-46.408 58.896-98.202 58.896-98.202" fill="none" stroke="#000" stroke-width=".88149"/>
   <path d="m302.04 546.28c-70.711 24.244-92.934-13.132-92.934-13.132" fill="none" stroke="#000"/>
   <path d="m372.75 516.98c55.558-21.213 87.883-10.102 87.883-10.102" fill="none" stroke="#000"/>
   <path id="b" transform="matrix(.47698 0 0 .47698 108.05 278.68)" d="m204.05 525.57c0 4.7421-3.6181 8.5863-8.0812 8.5863s-8.0812-3.8442-8.0812-8.5863 3.6181-8.5863 8.0812-8.5863 8.0812 3.8442 8.0812 8.5863z" fill="#ff0" stroke="#000" stroke-linecap="square" stroke-width="1.22"/>
   <use id="a" transform="translate(197.99 -110.11)" width="744.09448" height="1052.3622" xlink:href="#b"/>
   <use transform="translate(72.731 90.914)" width="744.09448" height="1052.3622" xlink:href="#a"/>
  </g>
 </g>
</svg>
